<svg xmlns="http://www.w3.org/2000/svg" viewBox="0 0 64 64" xmlns:v="https://vecta.io/nano"><path fill="#7cb342" d="M42 31V6h0L22 4h0v27z"/><path d="M22,4L7.8,4.9C6.8,5,6,5.8,6,6.9L5,31h17V4z" fill="#aed581"/><path d="M58 31l1-24.8c0-.5-.2-1.1-.6-1.5-.4-.5-1.1-.7-1.7-.6L42 6v25h16z" fill="#eceff1"/><path d="M58 31H42v26h0l14.8.9h.1c.5 0 1.1-.2 1.4-.6.4-.4.6-.9.6-1.5L58 31h0z" fill="#cfd8dc"/><path fill="#aed581" d="M42 57V31H22v28z"/><path d="M5 31l1 24.2c0 1 .8 1.8 1.7 1.9L22 59h0V31H5z" fill="#7cb342"/><path fill="#b0bec5" d="M25.9 51.4l.1-6-4-.1v6.5z"/><path fill="#78909c" d="M30 31l2.2-2.7v-1.5h-1.1l.1-1 2.9.1.1-4.4 6.2-.7-.4-9.1-5.5-1h-2l-.3 1.6-2.4-.7L29 15l-2 .1-.9 6 .8.6-.3 1.2-3.1-2.4-1.5-.1V31z"/><g fill="#b0bec5"><path d="M22 20.4l-4.6-.3-3.2 3.7-6.4 2.3.1 4.9H22z"/><path d="M22 31v13.4l.7-2.3 3.4.1.1-5.5 3.3.1.1-5.4.4-.4z"/></g><path fill="#78909c" d="M7.9 31l.1 5.3 5.4 2.5-2.9 6.8 1.4 7.5 8.6 1.4 1.4-2.7h.1v-6.5h-.3l.3-.9V31z"/><path fill="#4dd0e1" d="M21.4 26.7L18.3 31H22v-4.1z"/><path fill="#039be5" d="M16.4 33.6l-5.7 3.2H5.2l.2 4.2h8l4.3-3.2 2.9 1.9 1.4-.5V31h-3.7z"/><path fill="#4dd0e1" d="M40.1 55.1l-3-2.7-.3-2.4h-2.6l-2.5-8.1-.1-1.2L42 36l-1-5h-.2-4.1v3.3l-4.5-.5-.4-2.8H22v8.2l4.4-1.6 2.5 1.9.2 1 2 1.8 1.6 9 3.2 2.3.8 2.9.8 1 3.7-.4z"/><path d="M31.8 31H22v-4.1l3.3 1.4 5.6-3.1.9 5.8zm4.9-.8v.8h4.1l-4.1-.8z" fill="#039be5"/><path d="M17.5 45.3c-.3-.1-.5.1-.6.4s.1.5.4.6l4.7.7v-1l-4.5-.7z" fill="#546e7a"/><path d="M32.4 45.3c-.1-.3-.3-.4-.6-.4-3.2.9-6.5 1.2-9.8.9v1c.7 0 1.3.1 2 .1 2.7 0 5.4-.4 8.1-1.1.2.1.4-.2.3-.5z" fill="#7cb342"/><g fill="none"><path d="M50.5 55.1l-4.5-.2m0-2l9.7.5M46 50.8l10.8.6M46 46.8l8.8.3M46 44.8l10.8.3M46 40.7l8 .3m-8-4.3l10.7.2m-6.9-4.2H46" stroke="#757575" stroke-miterlimit="10"/><path stroke-miterlimit="10" d="M56.7 5.9L46 7.1M56.7 10L46 11m0 2l6.3-.6m4.4 3.8l-10.7.7m0 2l7.7-.5m3 4l-10.7.4m0 3.9l10.7-.2m0 4.1H46" stroke="#bdbdbd"/></g><path d="M24 9A14.98 14.98 0 0 0 9 24c0 10.2 11.5 23 15 23s15-12.8 15-23A14.98 14.98 0 0 0 24 9zm0 23c-4.4 0-8-3.6-8-8s3.6-8 8-8 8 3.6 8 8-3.6 8-8 8z" fill="#e53935"/></svg>